{
    "asset" : {
        "generator" : "Khronos glTF Blender I/O v3.3.32",
        "version" : "2.0"
    },
    "scene" : 0,
    "scenes" : [
        {
            "name" : "Scene",
            "nodes" : [
                6
            ]
        }
    ],
    "nodes" : [
        {
            "mesh" : 0,
            "name" : "matress5_yoga_mattress_0"
        },
        {
            "children" : [
                0
            ],
            "name" : "matress5",
            "rotation" : [
                0,
                0.9416365623474121,
                0,
                0.3366312086582184
            ],
            "translation" : [
                41.303558349609375,
                -0.18679846823215485,
                15.847814559936523
            ]
        },
        {
            "mesh" : 1,
            "name" : "Yoga_0004_yoga_0004_0"
        },
        {
            "children" : [
                1,
                2
            ],
            "name" : "Yoga_0004",
            "rotation" : [
                0,
                -0.9416365623474121,
                0,
                0.3366312086582184
            ],
            "translation" : [
                -0.5678596496582031,
                0.18679846823215485,
                -0.8523092269897461
            ]
        },
        {
            "children" : [
                3
            ],
            "name" : "RootNode"
        },
        {
            "children" : [
                4
            ],
            "name" : "Yoga 003 Bundle.fbx",
            "rotation" : [
                0.7071068286895752,
                0,
                0,
                0.7071067094802856
            ]
        },
        {
            "children" : [
                5
            ],
            "name" : "Sketchfab_model",
            "rotation" : [
                -0.7071068286895752,
                0,
                0,
                0.7071067094802856
            ],
            "scale" : [
                0.012015588581562042,
                0.012015590444207191,
                0.012015590444207191
            ]
        }
    ],
    "materials" : [
        {
            "doubleSided" : true,
            "name" : "yoga_mattress",
            "pbrMetallicRoughness" : {}
        },
        {
            "doubleSided" : true,
            "name" : "yoga_0004",
            "pbrMetallicRoughness" : {}
        }
    ],
    "meshes" : [
        {
            "name" : "matress5_yoga_mattress_0",
            "primitives" : [
                {
                    "attributes" : {
                        "POSITION" : 0,
                        "NORMAL" : 1,
                        "TEXCOORD_0" : 2
                    },
                    "indices" : 3,
                    "material" : 0
                }
            ]
        },
        {
            "name" : "Yoga_0004_yoga_0004_0",
            "primitives" : [
                {
                    "attributes" : {
                        "POSITION" : 4,
                        "NORMAL" : 5,
                        "TEXCOORD_0" : 6
                    },
                    "indices" : 7,
                    "material" : 1
                }
            ]
        }
    ],
    "accessors" : [
        {
            "bufferView" : 0,
            "componentType" : 5126,
            "count" : 132,
            "max" : [
                59.612770080566406,
                0.30698394775390625,
                4.5880126953125
            ],
            "min" : [
                26.885665893554688,
                -0.0167236328125,
                -27.74603271484375
            ],
            "type" : "VEC3"
        },
        {
            "bufferView" : 1,
            "componentType" : 5126,
            "count" : 132,
            "type" : "VEC3"
        },
        {
            "bufferView" : 2,
            "componentType" : 5126,
            "count" : 132,
            "type" : "VEC2"
        },
        {
            "bufferView" : 3,
            "componentType" : 5123,
            "count" : 180,
            "type" : "SCALAR"
        },
        {
            "bufferView" : 4,
            "componentType" : 5126,
            "count" : 21783,
            "max" : [
                4.40283203125,
                32.419921875,
                1.8488655090332031
            ],
            "min" : [
                -4.007560729980469,
                0.03464317321777344,
                -11.90203857421875
            ],
            "type" : "VEC3"
        },
        {
            "bufferView" : 5,
            "componentType" : 5126,
            "count" : 21783,
            "type" : "VEC3"
        },
        {
            "bufferView" : 6,
            "componentType" : 5126,
            "count" : 21783,
            "type" : "VEC2"
        },
        {
            "bufferView" : 7,
            "componentType" : 5123,
            "count" : 58884,
            "type" : "SCALAR"
        }
    ],
    "bufferViews" : [
        {
            "buffer" : 0,
            "byteLength" : 1584,
            "byteOffset" : 0,
            "target" : 34962
        },
        {
            "buffer" : 0,
            "byteLength" : 1584,
            "byteOffset" : 1584,
            "target" : 34962
        },
        {
            "buffer" : 0,
            "byteLength" : 1056,
            "byteOffset" : 3168,
            "target" : 34962
        },
        {
            "buffer" : 0,
            "byteLength" : 360,
            "byteOffset" : 4224,
            "target" : 34963
        },
        {
            "buffer" : 0,
            "byteLength" : 261396,
            "byteOffset" : 4584,
            "target" : 34962
        },
        {
            "buffer" : 0,
            "byteLength" : 261396,
            "byteOffset" : 265980,
            "target" : 34962
        },
        {
            "buffer" : 0,
            "byteLength" : 174264,
            "byteOffset" : 527376,
            "target" : 34962
        },
        {
            "buffer" : 0,
            "byteLength" : 117768,
            "byteOffset" : 701640,
            "target" : 34963
        }
    ],
    "buffers" : [
        {
            "byteLength" : 819408,
            "uri" : "data:application/octet-stream;base64,"
        }
    ]
}
