{
    "asset" : {
        "generator" : "Khronos glTF Blender I/O v1.7.33",
        "version" : "2.0"
    },
    "scene" : 0,
    "scenes" : [
        {
            "name" : "Scene",
            "nodes" : [
                0
            ]
        }
    ],
    "nodes" : [
        {
            "mesh" : 0,
            "name" : "Base_Head_Planes",
            "rotation" : [
                0.7071068286895752,
                0,
                0,
                0.7071067094802856
            ],
            "scale" : [
                0.019461549818515778,
                0.019461549818515778,
                0.019461549818515778
            ],
            "translation" : [
                0,
                0.8732576370239258,
                0
            ]
        }
    ],
    "materials" : [
        {
            "doubleSided" : true,
            "name" : "Default OBJ",
            "pbrMetallicRoughness" : {
                "baseColorFactor" : [
                    0.800000011920929,
                    0.800000011920929,
                    0.800000011920929,
                    1
                ],
                "metallicFactor" : 0,
                "roughnessFactor" : 0.5
            }
        }
    ],
    "meshes" : [
        {
            "name" : "Base_Head_Planes",
            "primitives" : [
                {
                    "attributes" : {
                        "POSITION" : 0,
                        "NORMAL" : 1
                    },
                    "indices" : 2,
                    "material" : 0
                }
            ]
        }
    ],
    "accessors" : [
        {
            "bufferView" : 0,
            "componentType" : 5126,
            "count" : 32562,
            "max" : [
                32.88884735107422,
                36.882545471191406,
                46.59751510620117
            ],
            "min" : [
                -32.88935470581055,
                -34.45777893066406,
                -55.01264953613281
            ],
            "type" : "VEC3"
        },
        {
            "bufferView" : 1,
            "componentType" : 5126,
            "count" : 32562,
            "type" : "VEC3"
        },
        {
            "bufferView" : 2,
            "componentType" : 5123,
            "count" : 32562,
            "type" : "SCALAR"
        }
    ],
    "bufferViews" : [
        {
            "buffer" : 0,
            "byteLength" : 390744,
            "byteOffset" : 0
        },
        {
            "buffer" : 0,
            "byteLength" : 390744,
            "byteOffset" : 390744
        },
        {
            "buffer" : 0,
            "byteLength" : 65124,
            "byteOffset" : 781488
        }
    ],
    "buffers" : [
        {
            "byteLength" : 846612,
            "uri" : "data:application/octet-stream;base64,"
        }
    ]
}
