{
    "asset" : {
        "generator" : "Khronos glTF Blender I/O v1.7.33",
        "version" : "2.0"
    },
    "scene" : 0,
    "scenes" : [
        {
            "name" : "Scene",
            "nodes" : [
                0
            ]
        }
    ],
    "nodes" : [
        {
            "mesh" : 0,
            "name" : "Mick_002",
            "rotation" : [
                0.7071068286895752,
                0,
                0,
                0.7071067094802856
            ]
        }
    ],
    "materials" : [
        {
            "doubleSided" : true,
            "name" : "initialShadingGroup.001",
            "pbrMetallicRoughness" : {
                "baseColorFactor" : [
                    0.800000011920929,
                    0.800000011920929,
                    0.800000011920929,
                    1
                ],
                "metallicFactor" : 0,
                "roughnessFactor" : 0.5
            }
        },
        {
            "doubleSided" : true,
            "name" : "phongE1SG.001",
            "pbrMetallicRoughness" : {
                "baseColorFactor" : [
                    0.800000011920929,
                    0.800000011920929,
                    0.800000011920929,
                    1
                ],
                "metallicFactor" : 0,
                "roughnessFactor" : 0.5
            }
        }
    ],
    "meshes" : [
        {
            "name" : "Mick_002",
            "primitives" : [
                {
                    "attributes" : {
                        "POSITION" : 0,
                        "NORMAL" : 1,
                        "TEXCOORD_0" : 2
                    },
                    "indices" : 3,
                    "material" : 0
                },
                {
                    "attributes" : {
                        "POSITION" : 4,
                        "NORMAL" : 5,
                        "TEXCOORD_0" : 6
                    },
                    "indices" : 7,
                    "material" : 1
                }
            ]
        }
    ],
    "accessors" : [
        {
            "bufferView" : 0,
            "componentType" : 5126,
            "count" : 36745,
            "max" : [
                5.019193172454834,
                5.284226894378662,
                0.11585722863674164
            ],
            "min" : [
                -3.4378418922424316,
                -9.259575843811035,
                -26.55245018005371
            ],
            "type" : "VEC3"
        },
        {
            "bufferView" : 1,
            "componentType" : 5126,
            "count" : 36745,
            "type" : "VEC3"
        },
        {
            "bufferView" : 2,
            "componentType" : 5126,
            "count" : 36745,
            "type" : "VEC2"
        },
        {
            "bufferView" : 3,
            "componentType" : 5123,
            "count" : 159768,
            "type" : "SCALAR"
        },
        {
            "bufferView" : 4,
            "componentType" : 5126,
            "count" : 904,
            "max" : [
                -1.108790397644043,
                1.0124030113220215,
                -23.98394203186035
            ],
            "min" : [
                -1.9156394004821777,
                -0.16039717197418213,
                -24.44303321838379
            ],
            "type" : "VEC3"
        },
        {
            "bufferView" : 5,
            "componentType" : 5126,
            "count" : 904,
            "type" : "VEC3"
        },
        {
            "bufferView" : 6,
            "componentType" : 5126,
            "count" : 904,
            "type" : "VEC2"
        },
        {
            "bufferView" : 7,
            "componentType" : 5123,
            "count" : 936,
            "type" : "SCALAR"
        }
    ],
    "bufferViews" : [
        {
            "buffer" : 0,
            "byteLength" : 440940,
            "byteOffset" : 0
        },
        {
            "buffer" : 0,
            "byteLength" : 440940,
            "byteOffset" : 440940
        },
        {
            "buffer" : 0,
            "byteLength" : 293960,
            "byteOffset" : 881880
        },
        {
            "buffer" : 0,
            "byteLength" : 319536,
            "byteOffset" : 1175840
        },
        {
            "buffer" : 0,
            "byteLength" : 10848,
            "byteOffset" : 1495376
        },
        {
            "buffer" : 0,
            "byteLength" : 10848,
            "byteOffset" : 1506224
        },
        {
            "buffer" : 0,
            "byteLength" : 7232,
            "byteOffset" : 1517072
        },
        {
            "buffer" : 0,
            "byteLength" : 1872,
            "byteOffset" : 1524304
        }
    ],
    "buffers" : [
        {
            "byteLength" : 1526176,
            "uri" : "data:application/octet-stream;base64,"
        }
    ]
}
