{
    "asset" : {
        "generator" : "Khronos glTF Blender I/O v1.7.33",
        "version" : "2.0"
    },
    "scene" : 0,
    "scenes" : [
        {
            "name" : "Scene",
            "nodes" : [
                0
            ]
        }
    ],
    "nodes" : [
        {
            "mesh" : 0,
            "name" : "model_0",
            "rotation" : [
                0.009235608391463757,
                0.4898911118507385,
                -0.005190251860767603,
                0.871719241142273
            ]
        }
    ],
    "materials" : [
        {
            "doubleSided" : true,
            "name" : "Material.001",
            "pbrMetallicRoughness" : {
                "metallicFactor" : 0,
                "roughnessFactor" : 0.5
            }
        }
    ],
    "meshes" : [
        {
            "name" : "model_0",
            "primitives" : [
                {
                    "attributes" : {
                        "POSITION" : 0,
                        "NORMAL" : 1,
                        "TEXCOORD_0" : 2
                    },
                    "indices" : 3,
                    "material" : 0
                }
            ]
        }
    ],
    "accessors" : [
        {
            "bufferView" : 0,
            "componentType" : 5126,
            "count" : 26402,
            "max" : [
                0.7857998609542847,
                3.0250134468078613,
                0.4510999917984009
            ],
            "min" : [
                -0.7839000225067139,
                -3.3926000595092773,
                -1.029311180114746
            ],
            "type" : "VEC3"
        },
        {
            "bufferView" : 1,
            "componentType" : 5126,
            "count" : 26402,
            "type" : "VEC3"
        },
        {
            "bufferView" : 2,
            "componentType" : 5126,
            "count" : 26402,
            "type" : "VEC2"
        },
        {
            "bufferView" : 3,
            "componentType" : 5123,
            "count" : 151350,
            "type" : "SCALAR"
        }
    ],
    "bufferViews" : [
        {
            "buffer" : 0,
            "byteLength" : 316824,
            "byteOffset" : 0
        },
        {
            "buffer" : 0,
            "byteLength" : 316824,
            "byteOffset" : 316824
        },
        {
            "buffer" : 0,
            "byteLength" : 211216,
            "byteOffset" : 633648
        },
        {
            "buffer" : 0,
            "byteLength" : 302700,
            "byteOffset" : 844864
        }
    ],
    "buffers" : [
        {
            "byteLength" : 1147564,
            "uri" : "data:application/octet-stream;base64,"
        }
    ]
}
