{
    "asset" : {
        "generator" : "Khronos glTF Blender I/O v1.7.33",
        "version" : "2.0"
    },
    "scene" : 0,
    "scenes" : [
        {
            "name" : "Scene",
            "nodes" : [
                2
            ]
        }
    ],
    "nodes" : [
        {
            "mesh" : 0,
            "name" : "Object_2"
        },
        {
            "children" : [
                0
            ],
            "name" : "a47ea9d7f74a415dae395ef4160bb577.stl.cleaner.materialmerger.gle"
        },
        {
            "children" : [
                1
            ],
            "name" : "Sketchfab_model",
            "rotation" : [
                -0.7071068286895752,
                0,
                0,
                0.7071068286895752
            ]
        }
    ],
    "materials" : [
        {
            "doubleSided" : true,
            "name" : "Scene_-_Root.001",
            "pbrMetallicRoughness" : {
                "metallicFactor" : 0,
                "roughnessFactor" : 0.6000000238418579
            }
        }
    ],
    "meshes" : [
        {
            "name" : "Object_0.001",
            "primitives" : [
                {
                    "attributes" : {
                        "POSITION" : 0,
                        "NORMAL" : 1,
                        "COLOR_0" : 2
                    },
                    "indices" : 3,
                    "material" : 0
                }
            ]
        }
    ],
    "accessors" : [
        {
            "bufferView" : 0,
            "componentType" : 5126,
            "count" : 79,
            "max" : [
                20,
                70,
                40
            ],
            "min" : [
                -54.697349548339844,
                0,
                11.361310005187988
            ],
            "type" : "VEC3"
        },
        {
            "bufferView" : 1,
            "componentType" : 5126,
            "count" : 79,
            "type" : "VEC3"
        },
        {
            "bufferView" : 2,
            "componentType" : 5123,
            "count" : 79,
            "normalized" : true,
            "type" : "VEC4"
        },
        {
            "bufferView" : 3,
            "componentType" : 5123,
            "count" : 120,
            "type" : "SCALAR"
        }
    ],
    "bufferViews" : [
        {
            "buffer" : 0,
            "byteLength" : 948,
            "byteOffset" : 0
        },
        {
            "buffer" : 0,
            "byteLength" : 948,
            "byteOffset" : 948
        },
        {
            "buffer" : 0,
            "byteLength" : 632,
            "byteOffset" : 1896
        },
        {
            "buffer" : 0,
            "byteLength" : 240,
            "byteOffset" : 2528
        }
    ],
    "buffers" : [
        {
            "byteLength" : 2768,
            "uri" : "data:application/octet-stream;base64,"
        }
    ]
}
