{
    "asset" : {
        "generator" : "Khronos glTF Blender I/O v1.7.33",
        "version" : "2.0"
    },
    "scene" : 0,
    "scenes" : [
        {
            "name" : "Scene",
            "nodes" : [
                2
            ]
        }
    ],
    "nodes" : [
        {
            "mesh" : 0,
            "name" : "Object_2",
            "translation" : [
                1.219472885131836,
                -6.343484878540039,
                26.066133499145508
            ]
        },
        {
            "children" : [
                0
            ],
            "name" : "a47ea9d7f74a415dae395ef4160bb577.stl.cleaner.materialmerger.gle"
        },
        {
            "children" : [
                1
            ],
            "name" : "Sketchfab_model",
            "rotation" : [
                -0.7071068286895752,
                0,
                0,
                0.7071068286895752
            ]
        }
    ],
    "materials" : [
        {
            "doubleSided" : true,
            "name" : "Scene_-_Root.001",
            "pbrMetallicRoughness" : {
                "metallicFactor" : 0,
                "roughnessFactor" : 0.6000000238418579
            }
        }
    ],
    "meshes" : [
        {
            "name" : "Object_0.001",
            "primitives" : [
                {
                    "attributes" : {
                        "POSITION" : 0,
                        "NORMAL" : 1,
                        "COLOR_0" : 2
                    },
                    "indices" : 3,
                    "material" : 0
                }
            ]
        }
    ],
    "accessors" : [
        {
            "bufferView" : 0,
            "componentType" : 5126,
            "count" : 97,
            "max" : [
                37.493743896484375,
                40.091094970703125,
                14.035928726196289
            ],
            "min" : [
                -37.20360565185547,
                -29.908903121948242,
                -14.602761268615723
            ],
            "type" : "VEC3"
        },
        {
            "bufferView" : 1,
            "componentType" : 5126,
            "count" : 97,
            "type" : "VEC3"
        },
        {
            "bufferView" : 2,
            "componentType" : 5123,
            "count" : 97,
            "normalized" : true,
            "type" : "VEC4"
        },
        {
            "bufferView" : 3,
            "componentType" : 5123,
            "count" : 120,
            "type" : "SCALAR"
        }
    ],
    "bufferViews" : [
        {
            "buffer" : 0,
            "byteLength" : 1164,
            "byteOffset" : 0
        },
        {
            "buffer" : 0,
            "byteLength" : 1164,
            "byteOffset" : 1164
        },
        {
            "buffer" : 0,
            "byteLength" : 776,
            "byteOffset" : 2328
        },
        {
            "buffer" : 0,
            "byteLength" : 240,
            "byteOffset" : 3104
        }
    ],
    "buffers" : [
        {
            "byteLength" : 3344,
            "uri" : "data:application/octet-stream;base64,"
        }
    ]
}
