{
    "asset" : {
        "generator" : "Khronos glTF Blender I/O v1.7.33",
        "version" : "2.0"
    },
    "extensionsUsed" : [
        "KHR_materials_unlit"
    ],
    "scene" : 0,
    "scenes" : [
        {
            "name" : "Scene",
            "nodes" : [
                5
            ]
        }
    ],
    "nodes" : [
        {
            "mesh" : 0,
            "name" : "Object_7"
        },
        {
            "mesh" : 1,
            "name" : "Object_8"
        },
        {
            "children" : [
                0,
                1
            ],
            "name" : "Girl_1"
        },
        {
            "children" : [
                2
            ],
            "name" : "GLTF_SceneRootNode",
            "rotation" : [
                0.7071068286895752,
                0,
                0,
                0.7071068286895752
            ]
        },
        {
            "children" : [
                3
            ],
            "name" : "root"
        },
        {
            "children" : [
                4
            ],
            "name" : "Sketchfab_model",
            "rotation" : [
                -0.7071068286895752,
                0,
                0,
                0.7071068286895752
            ]
        }
    ],
    "materials" : [
        {
            "doubleSided" : true,
            "extensions" : {
                "KHR_materials_unlit" : {}
            },
            "name" : "demon_skin.001",
            "pbrMetallicRoughness" : {
                "metallicFactor" : 0,
                "roughnessFactor" : 0.9
            }
        },
        {
            "extensions" : {
                "KHR_materials_unlit" : {}
            },
            "name" : "OUTLINE",
            "pbrMetallicRoughness" : {
                "baseColorFactor" : [
                    0,
                    0,
                    0,
                    1
                ],
                "metallicFactor" : 0,
                "roughnessFactor" : 0.9
            }
        }
    ],
    "meshes" : [
        {
            "name" : "Object_2",
            "primitives" : [
                {
                    "attributes" : {
                        "POSITION" : 0,
                        "NORMAL" : 1,
                        "TEXCOORD_0" : 2,
                        "TEXCOORD_1" : 3
                    },
                    "indices" : 4,
                    "material" : 0
                }
            ]
        },
        {
            "name" : "Object_3",
            "primitives" : [
                {
                    "attributes" : {
                        "POSITION" : 5,
                        "NORMAL" : 6,
                        "TEXCOORD_0" : 7,
                        "TEXCOORD_1" : 8
                    },
                    "indices" : 9,
                    "material" : 1
                }
            ]
        }
    ],
    "accessors" : [
        {
            "bufferView" : 0,
            "componentType" : 5126,
            "count" : 22535,
            "max" : [
                0.20944684743881226,
                1.5944838523864746,
                0.5895285606384277
            ],
            "min" : [
                -0.26160216331481934,
                0.035286664962768555,
                -0.1980622559785843
            ],
            "type" : "VEC3"
        },
        {
            "bufferView" : 1,
            "componentType" : 5126,
            "count" : 22535,
            "type" : "VEC3"
        },
        {
            "bufferView" : 2,
            "componentType" : 5126,
            "count" : 22535,
            "type" : "VEC2"
        },
        {
            "bufferView" : 3,
            "componentType" : 5126,
            "count" : 22535,
            "type" : "VEC2"
        },
        {
            "bufferView" : 4,
            "componentType" : 5123,
            "count" : 90198,
            "type" : "SCALAR"
        },
        {
            "bufferView" : 5,
            "componentType" : 5126,
            "count" : 33818,
            "max" : [
                0.21484172344207764,
                1.6838821172714233,
                0.59006267786026
            ],
            "min" : [
                -0.4012695550918579,
                -0.003604888916015625,
                -0.45787513256073
            ],
            "type" : "VEC3"
        },
        {
            "bufferView" : 6,
            "componentType" : 5126,
            "count" : 33818,
            "type" : "VEC3"
        },
        {
            "bufferView" : 7,
            "componentType" : 5126,
            "count" : 33818,
            "type" : "VEC2"
        },
        {
            "bufferView" : 8,
            "componentType" : 5126,
            "count" : 33818,
            "type" : "VEC2"
        },
        {
            "bufferView" : 9,
            "componentType" : 5123,
            "count" : 119874,
            "type" : "SCALAR"
        }
    ],
    "bufferViews" : [
        {
            "buffer" : 0,
            "byteLength" : 270420,
            "byteOffset" : 0
        },
        {
            "buffer" : 0,
            "byteLength" : 270420,
            "byteOffset" : 270420
        },
        {
            "buffer" : 0,
            "byteLength" : 180280,
            "byteOffset" : 540840
        },
        {
            "buffer" : 0,
            "byteLength" : 180280,
            "byteOffset" : 721120
        },
        {
            "buffer" : 0,
            "byteLength" : 180396,
            "byteOffset" : 901400
        },
        {
            "buffer" : 0,
            "byteLength" : 405816,
            "byteOffset" : 1081796
        },
        {
            "buffer" : 0,
            "byteLength" : 405816,
            "byteOffset" : 1487612
        },
        {
            "buffer" : 0,
            "byteLength" : 270544,
            "byteOffset" : 1893428
        },
        {
            "buffer" : 0,
            "byteLength" : 270544,
            "byteOffset" : 2163972
        },
        {
            "buffer" : 0,
            "byteLength" : 239748,
            "byteOffset" : 2434516
        }
    ],
    "buffers" : [
        {
            "byteLength" : 2674264,
            "uri" : "data:application/octet-stream;base64,"
        }
    ]
}
