{
    "asset" : {
        "generator" : "Khronos glTF Blender I/O v1.7.33",
        "version" : "2.0"
    },
    "scene" : 0,
    "scenes" : [
        {
            "name" : "Scene",
            "nodes" : [
                0
            ]
        }
    ],
    "nodes" : [
        {
            "mesh" : 0,
            "name" : "Mick_002",
            "rotation" : [
                0.7071068286895752,
                0,
                0,
                0.7071067094802856
            ]
        }
    ],
    "materials" : [
        {
            "doubleSided" : true,
            "name" : "initialShadingGroup",
            "pbrMetallicRoughness" : {
                "baseColorFactor" : [
                    0.800000011920929,
                    0.800000011920929,
                    0.800000011920929,
                    1
                ],
                "metallicFactor" : 0,
                "roughnessFactor" : 0.5
            }
        },
        {
            "doubleSided" : true,
            "name" : "phongE1SG",
            "pbrMetallicRoughness" : {
                "baseColorFactor" : [
                    0.800000011920929,
                    0.800000011920929,
                    0.800000011920929,
                    1
                ],
                "metallicFactor" : 0,
                "roughnessFactor" : 0.5
            }
        }
    ],
    "meshes" : [
        {
            "name" : "Mick_002",
            "primitives" : [
                {
                    "attributes" : {
                        "POSITION" : 0,
                        "NORMAL" : 1,
                        "TEXCOORD_0" : 2
                    },
                    "indices" : 3,
                    "material" : 0
                },
                {
                    "attributes" : {
                        "POSITION" : 4,
                        "NORMAL" : 5,
                        "TEXCOORD_0" : 6
                    },
                    "indices" : 7,
                    "material" : 1
                }
            ]
        }
    ],
    "accessors" : [
        {
            "bufferView" : 0,
            "componentType" : 5126,
            "count" : 35882,
            "max" : [
                5.017852783203125,
                5.284226894378662,
                0.11585722863674164
            ],
            "min" : [
                -3.4378418922424316,
                -9.259575843811035,
                -26.448583602905273
            ],
            "type" : "VEC3"
        },
        {
            "bufferView" : 1,
            "componentType" : 5126,
            "count" : 35882,
            "type" : "VEC3"
        },
        {
            "bufferView" : 2,
            "componentType" : 5126,
            "count" : 35882,
            "type" : "VEC2"
        },
        {
            "bufferView" : 3,
            "componentType" : 5123,
            "count" : 160578,
            "type" : "SCALAR"
        },
        {
            "bufferView" : 4,
            "componentType" : 5126,
            "count" : 122,
            "max" : [
                -1.250590443611145,
                0.8431494235992432,
                -24.20539093017578
            ],
            "min" : [
                -1.7576525211334229,
                0.05353601649403572,
                -24.25775718688965
            ],
            "type" : "VEC3"
        },
        {
            "bufferView" : 5,
            "componentType" : 5126,
            "count" : 122,
            "type" : "VEC3"
        },
        {
            "bufferView" : 6,
            "componentType" : 5126,
            "count" : 122,
            "type" : "VEC2"
        },
        {
            "bufferView" : 7,
            "componentType" : 5123,
            "count" : 126,
            "type" : "SCALAR"
        }
    ],
    "bufferViews" : [
        {
            "buffer" : 0,
            "byteLength" : 430584,
            "byteOffset" : 0
        },
        {
            "buffer" : 0,
            "byteLength" : 430584,
            "byteOffset" : 430584
        },
        {
            "buffer" : 0,
            "byteLength" : 287056,
            "byteOffset" : 861168
        },
        {
            "buffer" : 0,
            "byteLength" : 321156,
            "byteOffset" : 1148224
        },
        {
            "buffer" : 0,
            "byteLength" : 1464,
            "byteOffset" : 1469380
        },
        {
            "buffer" : 0,
            "byteLength" : 1464,
            "byteOffset" : 1470844
        },
        {
            "buffer" : 0,
            "byteLength" : 976,
            "byteOffset" : 1472308
        },
        {
            "buffer" : 0,
            "byteLength" : 252,
            "byteOffset" : 1473284
        }
    ],
    "buffers" : [
        {
            "byteLength" : 1473536,
            "uri" : "data:application/octet-stream;base64,"
        }
    ]
}
