{
  "accessors": [
    {
      "bufferView": 2,
      "componentType": 5126,
      "count": 7452,
      "max": [
        0.3128693997859955,
        0.3437483012676239,
        0.8712511658668518
      ],
      "min": [
        -0.4351249635219574,
        -0.36520928144454956,
        -0.688754141330719
      ],
      "type": "VEC3"
    },
    {
      "bufferView": 2,
      "byteOffset": 89424,
      "componentType": 5126,
      "count": 7452,
      "max": [
        0.9994824528694153,
        0.9999896883964539,
        0.9998555183410645
      ],
      "min": [
        -0.9994958639144897,
        -0.9999898076057434,
        -0.9998546242713928
      ],
      "type": "VEC3"
    },
    {
      "bufferView": 1,
      "componentType": 5126,
      "count": 7452,
      "max": [
        0.9791920185089111,
        0.9500248432159424
      ],
      "min": [
        0.2425060272216797,
        0.005400191992521286
      ],
      "type": "VEC2"
    },
    {
      "bufferView": 0,
      "componentType": 5125,
      "count": 43092,
      "type": "SCALAR"
    },
    {
      "bufferView": 2,
      "byteOffset": 178848,
      "componentType": 5126,
      "count": 7452,
      "max": [
        0.317035436630249,
        0.3486751914024353,
        0.8743003606796265
      ],
      "min": [
        -0.44000986218452454,
        -0.37014850974082947,
        -0.693753719329834
      ],
      "type": "VEC3"
    },
    {
      "bufferView": 2,
      "byteOffset": 268272,
      "componentType": 5126,
      "count": 7452,
      "max": [
        0.9999829530715942,
        0.9998728036880493,
        0.9999241828918457
      ],
      "min": [
        -0.9996470808982849,
        -0.9998705983161926,
        -0.9998936653137207
      ],
      "type": "VEC3"
    },
    {
      "bufferView": 1,
      "byteOffset": 59616,
      "componentType": 5126,
      "count": 7452,
      "max": [
        0.9791920185089111,
        0.9500248432159424
      ],
      "min": [
        0.2425060272216797,
        0.005400191992521286
      ],
      "type": "VEC2"
    },
    {
      "bufferView": 0,
      "byteOffset": 172368,
      "componentType": 5125,
      "count": 43092,
      "type": "SCALAR"
    },
    {
      "bufferView": 2,
      "byteOffset": 357696,
      "componentType": 5126,
      "count": 30127,
      "max": [
        0.49826642870903015,
        0.8725808262825012,
        1.5013031959533691
      ],
      "min": [
        -0.5096407532691956,
        -0.3585762083530426,
        -3.107121706008911
      ],
      "type": "VEC3"
    },
    {
      "bufferView": 2,
      "byteOffset": 719220,
      "componentType": 5126,
      "count": 30127,
      "max": [
        0.9999805688858032,
        0.9998992681503296,
        0.9999209642410278
      ],
      "min": [
        -0.9999831318855286,
        -0.9999886751174927,
        -0.9998799562454224
      ],
      "type": "VEC3"
    },
    {
      "bufferView": 1,
      "byteOffset": 119232,
      "componentType": 5126,
      "count": 30127,
      "max": [
        0.9992644190788269,
        0.993735134601593
      ],
      "min": [
        0.005853202193975449,
        0.0024162419140338898
      ],
      "type": "VEC2"
    },
    {
      "bufferView": 0,
      "byteOffset": 344736,
      "componentType": 5125,
      "count": 161580,
      "type": "SCALAR"
    },
    {
      "bufferView": 2,
      "byteOffset": 1080744,
      "componentType": 5126,
      "count": 31108,
      "max": [
        0.5040192008018494,
        0.8780827522277832,
        1.5070137977600098
      ],
      "min": [
        -0.5154522657394409,
        -0.3645210564136505,
        -3.1121985912323
      ],
      "type": "VEC3"
    },
    {
      "bufferView": 2,
      "byteOffset": 1454040,
      "componentType": 5126,
      "count": 31108,
      "max": [
        0.9999876022338867,
        0.9999865293502808,
        0.9998776316642761
      ],
      "min": [
        -0.9998876452445984,
        -0.9999952912330627,
        -0.9999194145202637
      ],
      "type": "VEC3"
    },
    {
      "bufferView": 1,
      "byteOffset": 360248,
      "componentType": 5126,
      "count": 31108,
      "max": [
        0.9992644190788269,
        0.993735134601593
      ],
      "min": [
        0.0,
        0.0
      ],
      "type": "VEC2"
    },
    {
      "bufferView": 0,
      "byteOffset": 991056,
      "componentType": 5125,
      "count": 160032,
      "type": "SCALAR"
    },
    {
      "bufferView": 2,
      "byteOffset": 1827336,
      "componentType": 5126,
      "count": 42572,
      "max": [
        0.34592723846435547,
        0.43530696630477905,
        1.5650219917297363
      ],
      "min": [
        -0.3557451665401459,
        -0.13715560734272003,
        0.8742716312408447
      ],
      "type": "VEC3"
    },
    {
      "bufferView": 2,
      "byteOffset": 2338200,
      "componentType": 5126,
      "count": 42572,
      "max": [
        0.9999428391456604,
        0.9998317360877991,
        0.999862551689148
      ],
      "min": [
        -0.9999837875366211,
        -0.9999293684959412,
        -0.9993171095848083
      ],
      "type": "VEC3"
    },
    {
      "bufferView": 1,
      "byteOffset": 609112,
      "componentType": 5126,
      "count": 42572,
      "max": [
        0.9957234859466553,
        0.9911398887634277
      ],
      "min": [
        0.006986025255173445,
        0.006986025255173445
      ],
      "type": "VEC2"
    },
    {
      "bufferView": 0,
      "byteOffset": 1631184,
      "componentType": 5125,
      "count": 64008,
      "type": "SCALAR"
    },
    {
      "bufferView": 2,
      "byteOffset": 2849064,
      "componentType": 5126,
      "count": 38212,
      "max": [
        0.35181382298469543,
        0.4412139654159546,
        1.5709896087646484
      ],
      "min": [
        -0.3589235246181488,
        -0.1408901959657669,
        0.8692998886108398
      ],
      "type": "VEC3"
    },
    {
      "bufferView": 2,
      "byteOffset": 3307608,
      "componentType": 5126,
      "count": 38212,
      "max": [
        0.9999144077301025,
        0.9997572898864746,
        0.9993208646774292
      ],
      "min": [
        -0.9999505281448364,
        -0.9996518492698669,
        -0.9996412396430969
      ],
      "type": "VEC3"
    },
    {
      "bufferView": 1,
      "byteOffset": 949688,
      "componentType": 5126,
      "count": 38212,
      "max": [
        0.9888840913772583,
        0.954337477684021
      ],
      "min": [
        0.006986025255173445,
        0.006986025255173445
      ],
      "type": "VEC2"
    },
    {
      "bufferView": 0,
      "byteOffset": 1887216,
      "componentType": 5125,
      "count": 57480,
      "type": "SCALAR"
    },
    {
      "bufferView": 3,
      "componentType": 5126,
      "count": 1,
      "max": [
        0.0
      ],
      "min": [
        0.0
      ],
      "type": "SCALAR"
    },
    {
      "bufferView": 4,
      "componentType": 5126,
      "count": 1,
      "max": [
        5.596808580163212e-17,
        310.2638854980469,
        1.1363598108291626
      ],
      "min": [
        5.596808580163212e-17,
        310.2638854980469,
        1.1363598108291626
      ],
      "type": "VEC3"
    },
    {
      "bufferView": 3,
      "byteOffset": 4,
      "componentType": 5126,
      "count": 28,
      "max": [
        0.5833333134651184
      ],
      "min": [
        0.0
      ],
      "type": "SCALAR"
    },
    {
      "bufferView": 4,
      "byteOffset": 12,
      "componentType": 5126,
      "count": 28,
      "max": [
        0.0,
        310.292236328125,
        1.1092194318771362
      ],
      "min": [
        -1.7438488006591797,
        310.292236328125,
        0.43353405594825745
      ],
      "type": "VEC3"
    },
    {
      "bufferView": 3,
      "byteOffset": 116,
      "componentType": 5126,
      "count": 28,
      "max": [
        0.5833333134651184
      ],
      "min": [
        0.0
      ],
      "type": "SCALAR"
    },
    {
      "bufferView": 4,
      "byteOffset": 348,
      "componentType": 5126,
      "count": 28,
      "max": [
        0.0,
        310.292236328125,
        1.4758061170578003
      ],
      "min": [
        -0.6964994072914124,
        310.292236328125,
        1.1092194318771362
      ],
      "type": "VEC3"
    },
    {
      "bufferView": 3,
      "byteOffset": 228,
      "componentType": 5126,
      "count": 1,
      "max": [
        0.0
      ],
      "min": [
        0.0
      ],
      "type": "SCALAR"
    },
    {
      "bufferView": 4,
      "byteOffset": 684,
      "componentType": 5126,
      "count": 1,
      "max": [
        -9.400714043295011e-05,
        620.58447265625,
        2.2184388637542725
      ],
      "min": [
        -9.400714043295011e-05,
        620.58447265625,
        2.2184388637542725
      ],
      "type": "VEC3"
    }
  ],
  "animations": [
    {
      "channels": [
        {
          "sampler": 0,
          "target": {
            "node": 4,
            "path": "translation"
          }
        }
      ],
      "name": "Swimsuit top|Girl.002Action",
      "samplers": [
        {
          "input": 24,
          "interpolation": "LINEAR",
          "output": 25
        }
      ]
    },
    {
      "channels": [
        {
          "sampler": 0,
          "target": {
            "node": 4,
            "path": "translation"
          }
        }
      ],
      "name": "Swimsuit top|R Eye.001Action",
      "samplers": [
        {
          "input": 26,
          "interpolation": "LINEAR",
          "output": 27
        }
      ]
    },
    {
      "channels": [
        {
          "sampler": 0,
          "target": {
            "node": 4,
            "path": "translation"
          }
        }
      ],
      "name": "Swimsuit top|R EyeAction",
      "samplers": [
        {
          "input": 28,
          "interpolation": "LINEAR",
          "output": 29
        }
      ]
    },
    {
      "channels": [
        {
          "sampler": 0,
          "target": {
            "node": 4,
            "path": "translation"
          }
        }
      ],
      "name": "Swimsuit top|Swimsuit 2.004Action",
      "samplers": [
        {
          "input": 30,
          "interpolation": "LINEAR",
          "output": 31
        }
      ]
    }
  ],
  "asset": {
    "extras": {
      "author": "LessaB3D (https://sketchfab.com/lessaB3D)",
      "license": "SKETCHFAB Standard (https://sketchfab.com/licenses)",
      "source": "https://sketchfab.com/3d-models/mio-bikini-girl-b238937c826e41a4a8dd6d7567aa75dd",
      "title": "Mio - Bikini girl"
    },
    "generator": "Sketchfab-15.42.0",
    "version": "2.0"
  },
  "bufferViews": [
    {
      "buffer": 0,
      "byteLength": 2117136,
      "name": "floatBufferViews",
      "target": 34963
    },
    {
      "buffer": 0,
      "byteLength": 1255384,
      "byteOffset": 2117136,
      "byteStride": 8,
      "name": "floatBufferViews",
      "target": 34962
    },
    {
      "buffer": 0,
      "byteLength": 3766152,
      "byteOffset": 3372520,
      "byteStride": 12,
      "name": "floatBufferViews",
      "target": 34962
    },
    {
      "buffer": 0,
      "byteLength": 232,
      "byteOffset": 7138672,
      "name": "floatBufferViews"
    },
    {
      "buffer": 0,
      "byteLength": 696,
      "byteOffset": 7138904,
      "byteStride": 12,
      "name": "floatBufferViews"
    }
  ],
  "buffers": [
    {
      "byteLength": 7139600,
      "uri": "scene.bin"
    }
  ],
  "extensionsUsed": [
    "KHR_materials_unlit"
  ],
  "images": [
    {
      "uri": "textures/Swimsuit_2_baseColor.png"
    },
    {
      "uri": "textures/Skin_baseColor.png"
    },
    {
      "uri": "textures/Hair_baseColor.png"
    }
  ],
  "materials": [
    {
      "doubleSided": true,
      "extensions": {
        "KHR_materials_unlit": {}
      },
      "name": "Swimsuit_2",
      "pbrMetallicRoughness": {
        "baseColorTexture": {
          "index": 0
        },
        "metallicFactor": 0.0
      }
    },
    {
      "extensions": {
        "KHR_materials_unlit": {}
      },
      "name": "cs_solid_black.001",
      "pbrMetallicRoughness": {
        "baseColorFactor": [
          0.029556799999999994,
          0.028425999999999996,
          0.03433979999999999,
          1.0
        ],
        "metallicFactor": 0.0
      }
    },
    {
      "doubleSided": true,
      "extensions": {
        "KHR_materials_unlit": {}
      },
      "name": "Skin",
      "pbrMetallicRoughness": {
        "baseColorTexture": {
          "index": 1
        },
        "metallicFactor": 0.0
      }
    },
    {
      "extensions": {
        "KHR_materials_unlit": {}
      },
      "name": "Outline-black",
      "pbrMetallicRoughness": {
        "baseColorFactor": [
          0.017642,
          0.017642,
          0.017642,
          1.0
        ],
        "metallicFactor": 0.0
      }
    },
    {
      "doubleSided": true,
      "extensions": {
        "KHR_materials_unlit": {}
      },
      "name": "Hair",
      "pbrMetallicRoughness": {
        "baseColorTexture": {
          "index": 2
        },
        "metallicFactor": 0.0
      }
    },
    {
      "extensions": {
        "KHR_materials_unlit": {}
      },
      "name": "Hair_Outline",
      "pbrMetallicRoughness": {
        "baseColorFactor": [
          0.0843761,
          0.07036,
          0.0742136,
          1.0
        ],
        "metallicFactor": 0.0
      }
    }
  ],
  "meshes": [
    {
      "name": "Swimsuit top_Swimsuit 2_0",
      "primitives": [
        {
          "attributes": {
            "NORMAL": 1,
            "POSITION": 0,
            "TEXCOORD_0": 2
          },
          "indices": 3,
          "material": 0,
          "mode": 4
        }
      ]
    },
    {
      "name": "Swimsuit top_cs_solid_black.001_0",
      "primitives": [
        {
          "attributes": {
            "NORMAL": 5,
            "POSITION": 4,
            "TEXCOORD_0": 6
          },
          "indices": 7,
          "material": 1,
          "mode": 4
        }
      ]
    },
    {
      "name": "Swimsuit top_Skin_0",
      "primitives": [
        {
          "attributes": {
            "NORMAL": 9,
            "POSITION": 8,
            "TEXCOORD_0": 10
          },
          "indices": 11,
          "material": 2,
          "mode": 4
        }
      ]
    },
    {
      "name": "Swimsuit top_Outline-black_0",
      "primitives": [
        {
          "attributes": {
            "NORMAL": 13,
            "POSITION": 12,
            "TEXCOORD_0": 14
          },
          "indices": 15,
          "material": 3,
          "mode": 4
        }
      ]
    },
    {
      "name": "Swimsuit top_Hair_0",
      "primitives": [
        {
          "attributes": {
            "NORMAL": 17,
            "POSITION": 16,
            "TEXCOORD_0": 18
          },
          "indices": 19,
          "material": 4,
          "mode": 4
        }
      ]
    },
    {
      "name": "Swimsuit top_Hair Outline_0",
      "primitives": [
        {
          "attributes": {
            "NORMAL": 21,
            "POSITION": 20,
            "TEXCOORD_0": 22
          },
          "indices": 23,
          "material": 5,
          "mode": 4
        }
      ]
    }
  ],
  "nodes": [
    {
      "children": [
        1
      ],
      "matrix": [
        1.0,
        0.0,
        0.0,
        0.0,
        0.0,
        2.220446049250313e-16,
        -1.0,
        0.0,
        0.0,
        1.0,
        2.220446049250313e-16,
        0.0,
        0.0,
        0.0,
        0.0,
        1.0
      ],
      "name": "Sketchfab_model"
    },
    {
      "children": [
        2
      ],
      "matrix": [
        0.009999999776482582,
        0.0,
        0.0,
        0.0,
        0.0,
        0.0,
        0.009999999776482582,
        0.0,
        0.0,
        -0.009999999776482582,
        0.0,
        0.0,
        0.0,
        0.0,
        0.0,
        1.0
      ],
      "name": "2065a4981c1c4eb5972c70757e1346a2.fbx"
    },
    {
      "children": [
        3
      ],
      "name": "Object_2"
    },
    {
      "children": [
        4
      ],
      "name": "RootNode"
    },
    {
      "children": [
        5,
        6,
        7,
        8,
        9,
        10
      ],
      "name": "Swimsuit top",
      "rotation": [
        -0.7071068286895752,
        0.0,
        0.0,
        0.7071067094802856
      ],
      "scale": [
        100.0,
        100.0,
        100.0
      ],
      "translation": [
        0.0,
        310.292236328125,
        1.1092194318771362
      ]
    },
    {
      "mesh": 0,
      "name": "Swimsuit top_Swimsuit 2_0"
    },
    {
      "mesh": 1,
      "name": "Swimsuit top_cs_solid_black.001_0"
    },
    {
      "mesh": 2,
      "name": "Swimsuit top_Skin_0"
    },
    {
      "mesh": 3,
      "name": "Swimsuit top_Outline-black_0"
    },
    {
      "mesh": 4,
      "name": "Swimsuit top_Hair_0"
    },
    {
      "mesh": 5,
      "name": "Swimsuit top_Hair Outline_0"
    }
  ],
  "samplers": [
    {
      "magFilter": 9729,
      "minFilter": 9987,
      "wrapS": 10497,
      "wrapT": 10497
    }
  ],
  "scene": 0,
  "scenes": [
    {
      "name": "Sketchfab_Scene",
      "nodes": [
        0
      ]
    }
  ],
  "textures": [
    {
      "sampler": 0,
      "source": 0
    },
    {
      "sampler": 0,
      "source": 1
    },
    {
      "sampler": 0,
      "source": 2
    }
  ]
}
