{
    "asset" : {
        "generator" : "Khronos glTF Blender I/O v1.7.33",
        "version" : "2.0"
    },
    "scene" : 0,
    "scenes" : [
        {
            "name" : "Scene",
            "nodes" : [
                0
            ]
        }
    ],
    "nodes" : [
        {
            "mesh" : 0,
            "name" : "Base_Head_Planes",
            "rotation" : [
                0.7071068286895752,
                0,
                0,
                0.7071067094802856
            ]
        }
    ],
    "materials" : [
        {
            "doubleSided" : true,
            "name" : "Default OBJ",
            "pbrMetallicRoughness" : {
                "baseColorFactor" : [
                    0.9547194242477417,
                    1,
                    0.9386058449745178,
                    1
                ],
                "metallicFactor" : 0,
                "roughnessFactor" : 0.4000000059604645
            }
        }
    ],
    "meshes" : [
        {
            "name" : "Base_Head_Planes",
            "primitives" : [
                {
                    "attributes" : {
                        "POSITION" : 0,
                        "NORMAL" : 1
                    },
                    "indices" : 2,
                    "material" : 0
                }
            ]
        }
    ],
    "accessors" : [
        {
            "bufferView" : 0,
            "componentType" : 5126,
            "count" : 108540,
            "max" : [
                32.89078903198242,
                36.87480926513672,
                46.59751510620117
            ],
            "min" : [
                -32.891544342041016,
                -34.4595947265625,
                -55.00846862792969
            ],
            "type" : "VEC3"
        },
        {
            "bufferView" : 1,
            "componentType" : 5126,
            "count" : 108540,
            "type" : "VEC3"
        },
        {
            "bufferView" : 2,
            "componentType" : 5125,
            "count" : 108540,
            "type" : "SCALAR"
        }
    ],
    "bufferViews" : [
        {
            "buffer" : 0,
            "byteLength" : 1302480,
            "byteOffset" : 0
        },
        {
            "buffer" : 0,
            "byteLength" : 1302480,
            "byteOffset" : 1302480
        },
        {
            "buffer" : 0,
            "byteLength" : 434160,
            "byteOffset" : 2604960
        }
    ],
    "buffers" : [
        {
            "byteLength" : 3039120,
            "uri" : "data:application/octet-stream;base64,"
        }
    ]
}
