{
    "asset" : {
        "generator" : "Khronos glTF Blender I/O v1.7.33",
        "version" : "2.0"
    },
    "scene" : 0,
    "scenes" : [
        {
            "name" : "Scene",
            "nodes" : [
                0
            ]
        }
    ],
    "nodes" : [
        {
            "mesh" : 0,
            "name" : "seat_mesh",
            "rotation" : [
                0.7060723304748535,
                0,
                0,
                0.7081397175788879
            ],
            "translation" : [
                0,
                -0.24300479888916016,
                -0.52880859375
            ]
        }
    ],
    "materials" : [
        {
            "doubleSided" : true,
            "name" : "Material.002",
            "pbrMetallicRoughness" : {
                "metallicFactor" : 0,
                "roughnessFactor" : 0.5
            }
        }
    ],
    "meshes" : [
        {
            "name" : "Mesh.002",
            "primitives" : [
                {
                    "attributes" : {
                        "POSITION" : 0,
                        "NORMAL" : 1,
                        "TEXCOORD_0" : 2
                    },
                    "indices" : 3,
                    "material" : 0
                }
            ]
        }
    ],
    "accessors" : [
        {
            "bufferView" : 0,
            "componentType" : 5126,
            "count" : 11973,
            "max" : [
                42.86957931518555,
                29.73096466064453,
                46.29434585571289
            ],
            "min" : [
                -42.86957931518555,
                -56.95747375488281,
                -57.38585662841797
            ],
            "type" : "VEC3"
        },
        {
            "bufferView" : 1,
            "componentType" : 5126,
            "count" : 11973,
            "type" : "VEC3"
        },
        {
            "bufferView" : 2,
            "componentType" : 5126,
            "count" : 11973,
            "type" : "VEC2"
        },
        {
            "bufferView" : 3,
            "componentType" : 5123,
            "count" : 60612,
            "type" : "SCALAR"
        }
    ],
    "bufferViews" : [
        {
            "buffer" : 0,
            "byteLength" : 143676,
            "byteOffset" : 0
        },
        {
            "buffer" : 0,
            "byteLength" : 143676,
            "byteOffset" : 143676
        },
        {
            "buffer" : 0,
            "byteLength" : 95784,
            "byteOffset" : 287352
        },
        {
            "buffer" : 0,
            "byteLength" : 121224,
            "byteOffset" : 383136
        }
    ],
    "buffers" : [
        {
            "byteLength" : 504360,
            "uri" : "data:application/octet-stream;base64,"
        }
    ]
}
