{
    "asset" : {
        "generator" : "Khronos glTF Blender I/O v1.7.33",
        "version" : "2.0"
    },
    "scene" : 0,
    "scenes" : [
        {
            "name" : "Scene",
            "nodes" : [
                0
            ]
        }
    ],
    "nodes" : [
        {
            "mesh" : 0,
            "name" : "leg_bottom_mesh",
            "rotation" : [
                0.7078306078910828,
                0,
                0,
                0.7063822150230408
            ],
            "translation" : [
                -0.009595664218068123,
                -1.162310004234314,
                -5.038784980773926
            ]
        }
    ],
    "materials" : [
        {
            "doubleSided" : true,
            "name" : "Material.002",
            "pbrMetallicRoughness" : {
                "metallicFactor" : 0,
                "roughnessFactor" : 0.5
            }
        }
    ],
    "meshes" : [
        {
            "name" : "Mesh.008",
            "primitives" : [
                {
                    "attributes" : {
                        "POSITION" : 0,
                        "NORMAL" : 1,
                        "TEXCOORD_0" : 2,
                        "COLOR_0" : 3
                    },
                    "indices" : 4,
                    "material" : 0
                }
            ]
        }
    ],
    "accessors" : [
        {
            "bufferView" : 0,
            "componentType" : 5126,
            "count" : 3758,
            "max" : [
                36.47340774536133,
                33.29227066040039,
                51.597965240478516
            ],
            "min" : [
                -36.454219818115234,
                -25.51970100402832,
                -63.628780364990234
            ],
            "type" : "VEC3"
        },
        {
            "bufferView" : 1,
            "componentType" : 5126,
            "count" : 3758,
            "type" : "VEC3"
        },
        {
            "bufferView" : 2,
            "componentType" : 5126,
            "count" : 3758,
            "type" : "VEC2"
        },
        {
            "bufferView" : 3,
            "componentType" : 5123,
            "count" : 3758,
            "normalized" : true,
            "type" : "VEC4"
        },
        {
            "bufferView" : 4,
            "componentType" : 5123,
            "count" : 19452,
            "type" : "SCALAR"
        }
    ],
    "bufferViews" : [
        {
            "buffer" : 0,
            "byteLength" : 45096,
            "byteOffset" : 0
        },
        {
            "buffer" : 0,
            "byteLength" : 45096,
            "byteOffset" : 45096
        },
        {
            "buffer" : 0,
            "byteLength" : 30064,
            "byteOffset" : 90192
        },
        {
            "buffer" : 0,
            "byteLength" : 30064,
            "byteOffset" : 120256
        },
        {
            "buffer" : 0,
            "byteLength" : 38904,
            "byteOffset" : 150320
        }
    ],
    "buffers" : [
        {
            "byteLength" : 189224,
            "uri" : "data:application/octet-stream;base64,"
        }
    ]
}
