{
    "asset" : {
        "generator" : "Khronos glTF Blender I/O v1.7.33",
        "version" : "2.0"
    },
    "scene" : 0,
    "scenes" : [
        {
            "name" : "Scene",
            "nodes" : [
                0
            ]
        }
    ],
    "nodes" : [
        {
            "mesh" : 0,
            "name" : "arm_002_mesh",
            "rotation" : [
                0.702966570854187,
                0,
                0,
                0.7112228870391846
            ],
            "translation" : [
                0.01595669984817505,
                31.85643768310547,
                -9.608722686767578
            ]
        }
    ],
    "materials" : [
        {
            "doubleSided" : true,
            "name" : "Material.003",
            "pbrMetallicRoughness" : {
                "metallicFactor" : 0,
                "roughnessFactor" : 0.5
            }
        }
    ],
    "meshes" : [
        {
            "name" : "Mesh.018",
            "primitives" : [
                {
                    "attributes" : {
                        "POSITION" : 0,
                        "NORMAL" : 1,
                        "TEXCOORD_0" : 2
                    },
                    "indices" : 3,
                    "material" : 0
                }
            ]
        }
    ],
    "accessors" : [
        {
            "bufferView" : 0,
            "componentType" : 5126,
            "count" : 4224,
            "max" : [
                37.484046936035156,
                44.258155822753906,
                55.40026092529297
            ],
            "min" : [
                -37.51595687866211,
                -34.13807678222656,
                -43.29307556152344
            ],
            "type" : "VEC3"
        },
        {
            "bufferView" : 1,
            "componentType" : 5126,
            "count" : 4224,
            "type" : "VEC3"
        },
        {
            "bufferView" : 2,
            "componentType" : 5126,
            "count" : 4224,
            "type" : "VEC2"
        },
        {
            "bufferView" : 3,
            "componentType" : 5123,
            "count" : 21576,
            "type" : "SCALAR"
        }
    ],
    "bufferViews" : [
        {
            "buffer" : 0,
            "byteLength" : 50688,
            "byteOffset" : 0
        },
        {
            "buffer" : 0,
            "byteLength" : 50688,
            "byteOffset" : 50688
        },
        {
            "buffer" : 0,
            "byteLength" : 33792,
            "byteOffset" : 101376
        },
        {
            "buffer" : 0,
            "byteLength" : 43152,
            "byteOffset" : 135168
        }
    ],
    "buffers" : [
        {
            "byteLength" : 178320,
            "uri" : "data:application/octet-stream;base64,"
        }
    ]
}
